<?xml version="1.0" standalone="no"?>
<!DOCTYPE svg PUBLIC "-//W3C//DTD SVG 20010904//EN"
 "http://www.w3.org/TR/2001/REC-SVG-20010904/DTD/svg10.dtd">
<svg version="1.0" xmlns="http://www.w3.org/2000/svg"
 width="225.000000pt" height="225.000000pt" viewBox="0 0 225.000000 225.000000"
 preserveAspectRatio="xMidYMid meet">

<g transform="translate(0.000000,225.000000) scale(0.100000,-0.100000)"
fill="#000000" stroke="none">
<path d="M333 1604 c9 -52 59 -154 98 -199 39 -44 149 -119 159 -108 4 5 22
46 40 93 18 47 37 91 43 98 20 25 214 6 248 -24 9 -8 22 -43 29 -77 7 -34 16
-65 19 -69 12 -14 82 43 126 103 41 55 73 125 89 192 l6 27 -431 0 -432 0 6
-36z"/>
<path d="M1137 1449 c-131 -135 -142 -295 -26 -379 53 -38 100 -47 131 -26 28
20 77 21 105 1 20 -14 26 -14 56 -1 38 16 82 67 92 108 6 23 2 29 -24 42 -50
26 -85 21 -114 -18 -31 -40 -89 -70 -118 -61 -32 11 -50 63 -38 115 12 52 54
143 74 160 12 10 16 7 25 -15 5 -14 10 -32 10 -38 1 -39 51 -62 110 -52 40 7
40 7 40 53 0 26 -8 62 -18 81 -29 58 -57 71 -161 78 l-92 6 -52 -54z"/>
<path d="M1530 1494 c-13 -4 -15 -37 -15 -224 0 -160 3 -222 12 -231 8 -8 42
-13 85 -13 l73 -1 3 227 2 226 -50 11 c-51 11 -82 12 -110 5z"/>
<path d="M649 1413 c-44 -106 -107 -293 -115 -341 -6 -36 -4 -40 25 -52 45
-18 101 -18 112 0 5 8 13 34 19 58 l11 42 74 0 73 0 12 -34 c8 -24 20 -38 42
-45 31 -11 104 -5 113 10 3 4 -13 79 -34 166 -22 87 -43 175 -46 195 -4 21
-12 41 -19 46 -17 14 -122 32 -182 32 l-52 0 -33 -77z m147 -90 c4 -27 8 -64
8 -83 1 -31 -2 -35 -28 -38 -16 -2 -32 0 -37 5 -6 6 8 89 27 151 8 27 23 9 30
-35z"/>
<path d="M764 1312 c-10 -48 -9 -52 8 -52 19 0 23 31 9 79 -5 20 -8 16 -17
-27z"/>
<path d="M1233 1025 l-28 -24 90 0 90 0 -28 24 c-18 16 -40 25 -62 25 -22 0
-44 -9 -62 -25z"/>
<path d="M1620 915 c0 -22 4 -25 35 -25 31 0 35 3 35 25 0 22 -4 25 -35 25
-31 0 -35 -3 -35 -25z"/>
<path d="M530 740 l0 -130 30 0 30 0 0 62 0 62 46 -62 c43 -58 49 -62 86 -62
l40 0 -28 38 c-15 20 -36 48 -46 61 -10 13 -18 27 -18 30 0 4 20 35 45 69 l45
62 -40 0 c-37 0 -42 -4 -82 -61 l-43 -61 -3 61 c-3 60 -3 61 -32 61 l-30 0 0
-130z"/>
<path d="M824 855 c-33 -22 -47 -68 -42 -136 4 -52 9 -66 32 -86 23 -19 38
-23 94 -23 95 1 124 30 125 124 1 61 -19 106 -53 123 -34 17 -131 16 -156 -2z
m134 -62 c19 -27 15 -90 -8 -113 -45 -45 -110 -10 -110 60 0 54 30 85 74 76
17 -3 37 -14 44 -23z"/>
<path d="M1060 740 l0 -130 75 0 c63 0 76 3 85 19 15 30 14 31 -45 31 l-55 0
0 105 0 105 -30 0 -30 0 0 -130z"/>
<path d="M1250 740 l0 -130 95 0 c95 0 95 0 95 25 0 24 -2 25 -64 25 -62 0
-63 0 -58 25 4 23 8 25 63 25 56 0 59 1 59 25 0 23 -4 24 -62 27 -59 3 -63 4
-63 28 0 23 4 25 56 28 49 3 58 6 67 27 l12 25 -100 0 -100 0 0 -130z"/>
<path d="M1540 787 c0 -93 -15 -127 -56 -127 -27 0 -29 -7 -10 -32 19 -25 60
-22 93 6 26 23 28 28 31 130 l4 106 -31 0 -31 0 0 -83z"/>
<path d="M1620 740 l0 -130 35 0 35 0 0 130 0 130 -35 0 -35 0 0 -130z"/>
</g>
</svg>
